<svg width="24" height="24" viewBox="0 0 24 24" fill="none" xmlns="http://www.w3.org/2000/svg">
<g id="Iconsax/Linear/forbidden2">
<path id="Vector" d="M8.5 15.5L15.5 8.5M15.5 15.5L8.5 8.5M14.9 2H9.1C8.42 2 7.46 2.4 6.98 2.88L2.88 6.98C2.4 7.46 2 8.42 2 9.1V14.9C2 15.58 2.4 16.54 2.88 17.02L6.98 21.12C7.46 21.6 8.42 22 9.1 22H14.9C15.58 22 16.54 21.6 17.02 21.12L21.12 17.02C21.6 16.54 22 15.58 22 14.9V9.1C22 8.42 21.6 7.46 21.12 6.98L17.02 2.88C16.54 2.4 15.58 2 14.9 2Z" stroke="#C83434" stroke-width="1.5" stroke-linecap="round" stroke-linejoin="round"/>
</g>
</svg>
